<svg width="27" height="25" viewBox="0 0 27 25" fill="none" xmlns="http://www.w3.org/2000/svg">
<g filter="url(#filter0_d_12_67)">
<path d="M14.3438 1.375V4.75C14.3438 4.97378 14.2549 5.18839 14.0966 5.34662C13.9384 5.50486 13.7238 5.59375 13.5 5.59375C13.2762 5.59375 13.0616 5.50486 12.9034 5.34662C12.7451 5.18839 12.6562 4.97378 12.6562 4.75V1.375C12.6562 1.15122 12.7451 0.936612 12.9034 0.778379C13.0616 0.620145 13.2762 0.53125 13.5 0.53125C13.7238 0.53125 13.9384 0.620145 14.0966 0.778379C14.2549 0.936612 14.3438 1.15122 14.3438 1.375ZM18.2725 7.57129C18.3834 7.57124 18.4932 7.54932 18.5956 7.50679C18.698 7.46426 18.7911 7.40196 18.8694 7.32344L21.2562 4.93773C21.4145 4.77941 21.5034 4.56468 21.5034 4.34078C21.5034 4.11688 21.4145 3.90215 21.2562 3.74383C21.0978 3.58551 20.8831 3.49656 20.6592 3.49656C20.4353 3.49656 20.2206 3.58551 20.0623 3.74383L17.6766 6.13059C17.5585 6.24853 17.478 6.39883 17.4454 6.56249C17.4128 6.72615 17.4294 6.89582 17.4932 7.05003C17.5569 7.20425 17.665 7.33608 17.8037 7.42886C17.9425 7.52165 18.1056 7.57121 18.2725 7.57129ZM23.625 10.6562H20.25C20.0262 10.6562 19.8116 10.7451 19.6534 10.9034C19.4951 11.0616 19.4062 11.2762 19.4062 11.5C19.4062 11.7238 19.4951 11.9384 19.6534 12.0966C19.8116 12.2549 20.0262 12.3438 20.25 12.3438H23.625C23.8488 12.3438 24.0634 12.2549 24.2216 12.0966C24.3799 11.9384 24.4688 11.7238 24.4688 11.5C24.4688 11.2762 24.3799 11.0616 24.2216 10.9034C24.0634 10.7451 23.8488 10.6562 23.625 10.6562ZM18.8694 15.6766C18.7099 15.525 18.4975 15.4418 18.2775 15.4446C18.0574 15.4474 17.8472 15.5361 17.6916 15.6916C17.5361 15.8472 17.4474 16.0574 17.4446 16.2775C17.4418 16.4975 17.525 16.7099 17.6766 16.8694L20.0623 19.2562C20.2206 19.4145 20.4353 19.5034 20.6592 19.5034C20.8831 19.5034 21.0978 19.4145 21.2562 19.2562C21.4145 19.0978 21.5034 18.8831 21.5034 18.6592C21.5034 18.4353 21.4145 18.2206 21.2562 18.0623L18.8694 15.6766ZM13.5 17.4062C13.2762 17.4062 13.0616 17.4951 12.9034 17.6534C12.7451 17.8116 12.6562 18.0262 12.6562 18.25V21.625C12.6562 21.8488 12.7451 22.0634 12.9034 22.2216C13.0616 22.3799 13.2762 22.4688 13.5 22.4688C13.7238 22.4688 13.9384 22.3799 14.0966 22.2216C14.2549 22.0634 14.3438 21.8488 14.3438 21.625V18.25C14.3438 18.0262 14.2549 17.8116 14.0966 17.6534C13.9384 17.4951 13.7238 17.4062 13.5 17.4062ZM8.13059 15.6766L5.74383 18.0623C5.58551 18.2206 5.49656 18.4353 5.49656 18.6592C5.49656 18.8831 5.58551 19.0978 5.74383 19.2562C5.90215 19.4145 6.11688 19.5034 6.34078 19.5034C6.56468 19.5034 6.77941 19.4145 6.93773 19.2562L9.32344 16.8694C9.47499 16.7099 9.55823 16.4975 9.55542 16.2775C9.5526 16.0574 9.46395 15.8472 9.30836 15.6916C9.15277 15.5361 8.94256 15.4474 8.72254 15.4446C8.50252 15.4418 8.29011 15.525 8.13059 15.6766ZM7.59375 11.5C7.59375 11.2762 7.50486 11.0616 7.34662 10.9034C7.18839 10.7451 6.97378 10.6562 6.75 10.6562H3.375C3.15122 10.6562 2.93661 10.7451 2.77838 10.9034C2.62014 11.0616 2.53125 11.2762 2.53125 11.5C2.53125 11.7238 2.62014 11.9384 2.77838 12.0966C2.93661 12.2549 3.15122 12.3438 3.375 12.3438H6.75C6.97378 12.3438 7.18839 12.2549 7.34662 12.0966C7.50486 11.9384 7.59375 11.7238 7.59375 11.5ZM6.93773 3.74383C6.77941 3.58551 6.56468 3.49656 6.34078 3.49656C6.11688 3.49656 5.90215 3.58551 5.74383 3.74383C5.58551 3.90215 5.49656 4.11688 5.49656 4.34078C5.49656 4.45165 5.5184 4.56142 5.56082 4.66385C5.60325 4.76628 5.66544 4.85934 5.74383 4.93773L8.13059 7.32344C8.29011 7.47499 8.50252 7.55823 8.72254 7.55542C8.94256 7.5526 9.15277 7.46395 9.30836 7.30836C9.46395 7.15277 9.5526 6.94256 9.55542 6.72254C9.55823 6.50252 9.47499 6.29011 9.32344 6.13059L6.93773 3.74383Z" fill="black"/>
</g>
<defs>
<filter id="filter0_d_12_67" x="-1.46875" y="0.53125" width="29.9375" height="29.9375" filterUnits="userSpaceOnUse" color-interpolation-filters="sRGB">
<feFlood flood-opacity="0" result="BackgroundImageFix"/>
<feColorMatrix in="SourceAlpha" type="matrix" values="0 0 0 0 0 0 0 0 0 0 0 0 0 0 0 0 0 0 127 0" result="hardAlpha"/>
<feOffset dy="4"/>
<feGaussianBlur stdDeviation="2"/>
<feComposite in2="hardAlpha" operator="out"/>
<feColorMatrix type="matrix" values="0 0 0 0 0 0 0 0 0 0 0 0 0 0 0 0 0 0 0.25 0"/>
<feBlend mode="normal" in2="BackgroundImageFix" result="effect1_dropShadow_12_67"/>
<feBlend mode="normal" in="SourceGraphic" in2="effect1_dropShadow_12_67" result="shape"/>
</filter>
</defs>
</svg>
